<?xml version="1.0" encoding="UTF-8"?>
<svg width="102px" height="27px" viewBox="0 0 102 27" version="1.1" xmlns="http://www.w3.org/2000/svg" xmlns:xlink="http://www.w3.org/1999/xlink">
    <!-- Generator: Sketch 46 (44423) - http://www.bohemiancoding.com/sketch -->
    <title>EVOLVE NEG NO STRAP mono</title>
    <desc>Created with Sketch.</desc>
    <defs></defs>
    <g id="Page-1" stroke="none" stroke-width="1" fill="none" fill-rule="evenodd">
        <g id="Homescreen" transform="translate(-738.000000, -115.000000)" fill="#FFFFFE">
            <g id="EVOLVE-NEG-NO-STRAP-mono" transform="translate(738.000000, 115.000000)">
                <path d="M17.6708223,19.5644508 L4.93931616,19.5644508 C5.56054634,21.75382 7.42671189,22.9699621 10.0609588,22.9699621 C11.8536988,22.9699621 13.5367128,22.3791302 15.1100009,21.2319446 L17.158493,24.4290192 C15.000275,26.1317748 12.5483546,27 9.76890641,27 C7.02410853,27 4.68273902,26.1317748 2.81657347,24.4290192 C0.951232927,22.6917853 0,20.5721562 0,18.0356537 C0,15.4983675 0.914932624,13.3442602 2.70684756,11.6062427 C4.53671281,9.86900875 6.7320561,9 9.32917774,9 C11.9271244,9 14.0490421,9.76479039 15.6215052,11.2935876 C17.1947933,12.8223847 18,14.7335771 18,16.9926864 C18,17.8264333 17.8902741,18.6954421 17.6708223,19.5644508 M13.2075351,16.2631579 C13.1704098,14.1435288 11.4510954,12.7879065 9.29287744,12.7879065 C7.20726006,12.7879065 5.52424604,14.1435288 4.93931616,16.2631579 L13.2075351,16.2631579" id="Fill-1"></path>
                <polyline id="Fill-2" points="32.8697626 9 27.5008147 20.8300125 22.1302374 9 17 9 25.8518389 27 29.1489758 27 38 9 32.8697626 9"></polyline>
                <polyline id="Fill-3" points="79.8697626 9 74.5008147 20.8300125 69.1302374 9 64 9 72.8518389 27 76.1489758 27 85 9 79.8697626 9"></polyline>
                <polygon id="Fill-4" points="57 27 62 27 62 0 57 0"></polygon>
                <path d="M101.670822,19.5644508 L88.9393162,19.5644508 C89.5605463,21.75382 91.4267119,22.9699621 94.0609588,22.9699621 C95.8536988,22.9699621 97.5367128,22.3791302 99.1100009,21.2319446 L101.158493,24.4290192 C99.000275,26.1317748 96.5483546,27 93.7680814,27 C91.0249335,27 88.682739,26.1317748 86.8165735,24.4290192 C84.9512329,22.6917853 84,20.5721562 84,18.0356537 C84,15.4983675 84.9149326,13.3442602 86.7068476,11.6062427 C88.5367128,9.86900875 90.7320561,9 93.3291777,9 C95.9271244,9 98.0490421,9.76479039 99.6215052,11.2935876 C101.195618,12.8223847 102,14.7335771 102,16.9926864 C102,17.8264333 101.890274,18.6954421 101.670822,19.5644508 M97.2075351,16.2631579 C97.1712348,14.1435288 95.4510954,12.7879065 93.2928774,12.7879065 C91.2072601,12.7879065 89.524246,14.1435288 88.9393162,16.2631579 L97.2075351,16.2631579" id="Fill-5"></path>
                <polygon id="Fill-6" points="44 20 48 20 48 16 44 16"></polygon>
                <path d="M46.0288205,9.00080053 L46.0288205,12.2621748 L47.9790073,12.2621748 L47.9790073,15.987058 L51.7096602,15.987058 L51.7096602,19.9737158 L47.9790073,19.9737158 L47.9790073,23.7026017 L43.9921722,23.7026017 L43.9921722,19.9737158 L40.263921,19.9737158 L40.263921,15.987058 L43.9921722,15.987058 L43.9921722,12.2621748 L46.0344245,12.2621748 L46.0344245,9.00160107 C46.0232165,9.00160107 46.0120085,9 46,9 C41.0292653,9 37,13.0290861 37,17.9995997 C37,22.9701134 41.0292653,27 46,27 C50.9707347,27 55,22.9701134 55,17.9995997 C55,13.0490994 51.0019569,9.03282188 46.0288205,9.00080053" id="Fill-7"></path>
                <polygon id="Fill-8" points="48 20.001 48.004 20.001 48.004 20 48 20"></polygon>
                <polygon id="Fill-9" points="48 16.006 48.004 16.006 48.004 16 48 16"></polygon>
            </g>
        </g>
    </g>
</svg>