<?xml version="1.0" encoding="UTF-8"?>
<svg width="214px" height="214px" viewBox="0 0 214 214" version="1.1" xmlns="http://www.w3.org/2000/svg" xmlns:xlink="http://www.w3.org/1999/xlink">
    <!-- Generator: Sketch 46 (44423) - http://www.bohemiancoding.com/sketch -->
    <title>infoicon</title>
    <desc>Created with Sketch.</desc>
    <defs></defs>
    <g id="Page-1" stroke="none" stroke-width="1" fill="none" fill-rule="evenodd">
        <g id="infoicon" transform="translate(0.000000, -1.000000)" fill-rule="nonzero" fill="#0069B3">
            <g id="Group" transform="translate(107.000000, 107.500000) scale(-1, 1) rotate(-180.000000) translate(-107.000000, -107.500000) translate(0.500000, 0.500000)">
                <path d="M89.5,212.8 C65.5,208.1 46.2,198.2 30.5,182.5 C17.1,169.1 7.5,152.3 2.2,133.1 C0.3,126.1 0,122.5 0,106.5 C0,90.5 0.3,86.9 2.3,79.8 C12.9,41.1 41.1,12.9 79.8,2.3 C86.9,0.3 90.4,0 106.5,0 C127.1,0 133.5,1.2 149.4,7.9 C173.2,17.9 195.1,39.8 205.1,63.6 C211.8,79.5 213,85.9 213,106.5 C213,122.6 212.7,126.1 210.7,133.2 C200.2,171.7 171.9,200.1 133.7,210.6 C127.6,212.3 122.5,212.8 109,213 C99.7,213.2 90.9,213.1 89.5,212.8 Z M123.3,170.9 C127.5,168.5 129.8,164.6 130.2,159.6 C131.1,148.8 120,141.3 109.9,146.1 C100.6,150.5 99.9,165.1 108.8,170.5 C112.7,172.9 119.7,173.1 123.3,170.9 Z M122.3,123.3 C121.3,119.8 116.4,104.4 111.5,89 C102.3,60.1 101,54.6 103.3,53.7 C104.8,53.2 114.1,62.5 115,65.6 C115.7,67.6 117.2,68 119.4,66.6 C120.5,65.9 120.2,64.8 117.9,61 C114.2,54.5 104.9,44.8 100.6,42.6 C92.6,38.5 84.4,38.9 79.5,43.5 C74.7,48 75.2,51.8 85.7,85.3 C92.7,107.6 94.6,115.1 93.8,116.3 C93.3,117.3 90.9,118.6 88.7,119.3 C83.7,120.9 82.9,124.1 87.1,125.1 C92.1,126.4 114,129.3 119.1,129.4 L124.3,129.5 L122.3,123.3 Z" id="Shape"></path>
            </g>
        </g>
    </g>
</svg>